<mxfile host="app.diagrams.net" agent="Mozilla/5.0 (X11; Linux x86_64) AppleWebKit/537.36 (KHTML, like Gecko) Chrome/117.0.0.0 Safari/537.36" version="24.7.13">
  <diagram name="Page-1" id="2YBvvXClWsGukQMizWep">
    <mxGraphModel dx="2074" dy="1190" grid="1" gridSize="10" guides="1" tooltips="1" connect="1" arrows="1" fold="1" page="1" pageScale="1" pageWidth="850" pageHeight="1100" math="0" shadow="0">
      <root>
        <mxCell id="0" />
        <mxCell id="1" parent="0" />
        <mxCell id="OwuwuEVSNwKDjZ3OUZzn-17" value="" style="shape=umlLifeline;perimeter=lifelinePerimeter;whiteSpace=wrap;html=1;container=1;dropTarget=0;collapsible=0;recursiveResize=0;outlineConnect=0;portConstraint=eastwest;newEdgeStyle={&quot;curved&quot;:0,&quot;rounded&quot;:0};participant=umlActor;" parent="1" vertex="1">
          <mxGeometry x="110" y="70" width="20" height="75" as="geometry" />
        </mxCell>
        <mxCell id="OwuwuEVSNwKDjZ3OUZzn-18" value="User" style="shape=umlLifeline;perimeter=lifelinePerimeter;whiteSpace=wrap;html=1;container=1;dropTarget=0;collapsible=0;recursiveResize=0;outlineConnect=0;portConstraint=eastwest;newEdgeStyle={&quot;curved&quot;:0,&quot;rounded&quot;:0};fillColor=#60a917;strokeColor=#2D7600;fontColor=#ffffff;" parent="1" vertex="1">
          <mxGeometry x="70" y="145" width="100" height="120" as="geometry" />
        </mxCell>
        <mxCell id="OwuwuEVSNwKDjZ3OUZzn-19" value="" style="html=1;points=[[0,0,0,0,5],[0,1,0,0,-5],[1,0,0,0,5],[1,1,0,0,-5]];perimeter=orthogonalPerimeter;outlineConnect=0;targetShapes=umlLifeline;portConstraint=eastwest;newEdgeStyle={&quot;curved&quot;:0,&quot;rounded&quot;:0};fillColor=#6d8764;fontColor=#ffffff;strokeColor=#3A5431;" parent="1" vertex="1">
          <mxGeometry x="115" y="260" width="10" height="540" as="geometry" />
        </mxCell>
        <mxCell id="OwuwuEVSNwKDjZ3OUZzn-32" value="User" style="html=1;whiteSpace=wrap;fillColor=#60a917;fontColor=#ffffff;strokeColor=#2D7600;" parent="1" vertex="1">
          <mxGeometry x="65" y="890" width="110" height="40" as="geometry" />
        </mxCell>
        <mxCell id="OwuwuEVSNwKDjZ3OUZzn-34" value="" style="shape=partialRectangle;fillColor=none;align=left;verticalAlign=middle;strokeColor=none;spacingLeft=34;rotatable=0;points=[[0,0.5],[1,0.5]];portConstraint=eastwest;dropTarget=0;" parent="1" vertex="1">
          <mxGeometry x="90" y="800" width="90" height="90" as="geometry" />
        </mxCell>
        <mxCell id="OwuwuEVSNwKDjZ3OUZzn-35" value="" style="shape=partialRectangle;top=0;left=0;bottom=0;fillColor=none;stokeWidth=1;dashed=1;align=left;verticalAlign=middle;spacingLeft=4;spacingRight=4;overflow=hidden;rotatable=0;points=[];portConstraint=eastwest;part=1;" parent="OwuwuEVSNwKDjZ3OUZzn-34" vertex="1" connectable="0">
          <mxGeometry width="30" height="90" as="geometry" />
        </mxCell>
        <mxCell id="OwuwuEVSNwKDjZ3OUZzn-36" value="Frontend" style="html=1;whiteSpace=wrap;fillColor=#60a917;fontColor=#ffffff;strokeColor=#2D7600;" parent="1" vertex="1">
          <mxGeometry x="250" y="890" width="100" height="40" as="geometry" />
        </mxCell>
        <mxCell id="OwuwuEVSNwKDjZ3OUZzn-37" value="" style="html=1;points=[[0,0,0,0,5],[0,1,0,0,-5],[1,0,0,0,5],[1,1,0,0,-5]];perimeter=orthogonalPerimeter;outlineConnect=0;targetShapes=umlLifeline;portConstraint=eastwest;newEdgeStyle={&quot;curved&quot;:0,&quot;rounded&quot;:0};fillColor=#6d8764;fontColor=#ffffff;strokeColor=#3A5431;" parent="1" vertex="1">
          <mxGeometry x="295" y="260" width="10" height="540" as="geometry" />
        </mxCell>
        <mxCell id="OwuwuEVSNwKDjZ3OUZzn-38" value="" style="shape=partialRectangle;fillColor=none;align=left;verticalAlign=middle;strokeColor=none;spacingLeft=34;rotatable=0;points=[[0,0.5],[1,0.5]];portConstraint=eastwest;dropTarget=0;" parent="1" vertex="1">
          <mxGeometry x="270" y="800" width="90" height="90" as="geometry" />
        </mxCell>
        <mxCell id="OwuwuEVSNwKDjZ3OUZzn-39" value="" style="shape=partialRectangle;top=0;left=0;bottom=0;fillColor=none;stokeWidth=1;dashed=1;align=left;verticalAlign=middle;spacingLeft=4;spacingRight=4;overflow=hidden;rotatable=0;points=[];portConstraint=eastwest;part=1;" parent="OwuwuEVSNwKDjZ3OUZzn-38" vertex="1" connectable="0">
          <mxGeometry width="30" height="90" as="geometry" />
        </mxCell>
        <mxCell id="OwuwuEVSNwKDjZ3OUZzn-42" value="Frontend" style="shape=umlLifeline;perimeter=lifelinePerimeter;whiteSpace=wrap;html=1;container=1;dropTarget=0;collapsible=0;recursiveResize=0;outlineConnect=0;portConstraint=eastwest;newEdgeStyle={&quot;curved&quot;:0,&quot;rounded&quot;:0};fillColor=#60a917;strokeColor=#2D7600;fontColor=#ffffff;" parent="1" vertex="1">
          <mxGeometry x="250" y="145" width="100" height="120" as="geometry" />
        </mxCell>
        <mxCell id="OwuwuEVSNwKDjZ3OUZzn-43" value="Add product to cart" style="html=1;verticalAlign=bottom;endArrow=block;curved=0;rounded=0;" parent="1" source="OwuwuEVSNwKDjZ3OUZzn-18" target="OwuwuEVSNwKDjZ3OUZzn-42" edge="1">
          <mxGeometry width="80" relative="1" as="geometry">
            <mxPoint x="180" y="190" as="sourcePoint" />
            <mxPoint x="950" y="620" as="targetPoint" />
            <Array as="points">
              <mxPoint x="200" y="230" />
            </Array>
            <mxPoint as="offset" />
          </mxGeometry>
        </mxCell>
        <mxCell id="OwuwuEVSNwKDjZ3OUZzn-44" value="Backend_API" style="shape=umlLifeline;perimeter=lifelinePerimeter;whiteSpace=wrap;html=1;container=1;dropTarget=0;collapsible=0;recursiveResize=0;outlineConnect=0;portConstraint=eastwest;newEdgeStyle={&quot;curved&quot;:0,&quot;rounded&quot;:0};fillColor=#60a917;strokeColor=#2D7600;fontColor=#ffffff;" parent="1" vertex="1">
          <mxGeometry x="430" y="145" width="100" height="115" as="geometry" />
        </mxCell>
        <mxCell id="OwuwuEVSNwKDjZ3OUZzn-45" value="" style="html=1;points=[[0,0,0,0,5],[0,1,0,0,-5],[1,0,0,0,5],[1,1,0,0,-5]];perimeter=orthogonalPerimeter;outlineConnect=0;targetShapes=umlLifeline;portConstraint=eastwest;newEdgeStyle={&quot;curved&quot;:0,&quot;rounded&quot;:0};fillColor=#6d8764;fontColor=#ffffff;strokeColor=#3A5431;" parent="1" vertex="1">
          <mxGeometry x="475" y="260" width="10" height="540" as="geometry" />
        </mxCell>
        <mxCell id="OwuwuEVSNwKDjZ3OUZzn-46" value="Backend_API" style="html=1;whiteSpace=wrap;fillColor=#60a917;fontColor=#ffffff;strokeColor=#2D7600;" parent="1" vertex="1">
          <mxGeometry x="430" y="890" width="100" height="40" as="geometry" />
        </mxCell>
        <mxCell id="OwuwuEVSNwKDjZ3OUZzn-47" value="" style="shape=partialRectangle;fillColor=none;align=left;verticalAlign=middle;strokeColor=none;spacingLeft=34;rotatable=0;points=[[0,0.5],[1,0.5]];portConstraint=eastwest;dropTarget=0;" parent="1" vertex="1">
          <mxGeometry x="450" y="800" width="90" height="90" as="geometry" />
        </mxCell>
        <mxCell id="OwuwuEVSNwKDjZ3OUZzn-48" value="" style="shape=partialRectangle;top=0;left=0;bottom=0;fillColor=none;stokeWidth=1;dashed=1;align=left;verticalAlign=middle;spacingLeft=4;spacingRight=4;overflow=hidden;rotatable=0;points=[];portConstraint=eastwest;part=1;" parent="OwuwuEVSNwKDjZ3OUZzn-47" vertex="1" connectable="0">
          <mxGeometry width="30" height="90" as="geometry" />
        </mxCell>
        <mxCell id="OwuwuEVSNwKDjZ3OUZzn-49" value="Forward add to cart request" style="html=1;verticalAlign=bottom;endArrow=block;curved=0;rounded=0;" parent="1" target="OwuwuEVSNwKDjZ3OUZzn-45" edge="1">
          <mxGeometry x="0.0061" width="80" relative="1" as="geometry">
            <mxPoint x="310" y="290" as="sourcePoint" />
            <mxPoint x="470" y="290" as="targetPoint" />
            <Array as="points" />
            <mxPoint as="offset" />
          </mxGeometry>
        </mxCell>
        <mxCell id="OwuwuEVSNwKDjZ3OUZzn-53" value="Forward order creation request" style="html=1;verticalAlign=bottom;endArrow=block;curved=0;rounded=0;" parent="1" source="OwuwuEVSNwKDjZ3OUZzn-37" target="OwuwuEVSNwKDjZ3OUZzn-45" edge="1">
          <mxGeometry width="80" relative="1" as="geometry">
            <mxPoint x="370" y="450" as="sourcePoint" />
            <mxPoint x="550" y="450" as="targetPoint" />
            <Array as="points">
              <mxPoint x="450" y="450" />
            </Array>
            <mxPoint as="offset" />
          </mxGeometry>
        </mxCell>
        <mxCell id="OwuwuEVSNwKDjZ3OUZzn-58" value="Cart_Service" style="shape=umlLifeline;perimeter=lifelinePerimeter;whiteSpace=wrap;html=1;container=1;dropTarget=0;collapsible=0;recursiveResize=0;outlineConnect=0;portConstraint=eastwest;newEdgeStyle={&quot;curved&quot;:0,&quot;rounded&quot;:0};fillColor=#60a917;strokeColor=#2D7600;fontColor=#ffffff;" parent="1" vertex="1">
          <mxGeometry x="590" y="145" width="100" height="120" as="geometry" />
        </mxCell>
        <mxCell id="OwuwuEVSNwKDjZ3OUZzn-60" value="Add item to cart" style="html=1;verticalAlign=bottom;endArrow=block;curved=0;rounded=0;" parent="1" target="OwuwuEVSNwKDjZ3OUZzn-63" edge="1">
          <mxGeometry x="0.0061" width="80" relative="1" as="geometry">
            <mxPoint x="490" y="310" as="sourcePoint" />
            <mxPoint x="635" y="310" as="targetPoint" />
            <Array as="points" />
            <mxPoint as="offset" />
          </mxGeometry>
        </mxCell>
        <mxCell id="OwuwuEVSNwKDjZ3OUZzn-63" value="" style="html=1;points=[[0,0,0,0,5],[0,1,0,0,-5],[1,0,0,0,5],[1,1,0,0,-5]];perimeter=orthogonalPerimeter;outlineConnect=0;targetShapes=umlLifeline;portConstraint=eastwest;newEdgeStyle={&quot;curved&quot;:0,&quot;rounded&quot;:0};fillColor=#6d8764;fontColor=#ffffff;strokeColor=#3A5431;" parent="1" vertex="1">
          <mxGeometry x="635" y="265" width="10" height="535" as="geometry" />
        </mxCell>
        <mxCell id="OwuwuEVSNwKDjZ3OUZzn-64" value="" style="shape=partialRectangle;fillColor=none;align=left;verticalAlign=middle;strokeColor=none;spacingLeft=34;rotatable=0;points=[[0,0.5],[1,0.5]];portConstraint=eastwest;dropTarget=0;" parent="1" vertex="1">
          <mxGeometry x="610" y="800" width="90" height="90" as="geometry" />
        </mxCell>
        <mxCell id="OwuwuEVSNwKDjZ3OUZzn-65" value="" style="shape=partialRectangle;top=0;left=0;bottom=0;fillColor=none;stokeWidth=1;dashed=1;align=left;verticalAlign=middle;spacingLeft=4;spacingRight=4;overflow=hidden;rotatable=0;points=[];portConstraint=eastwest;part=1;" parent="OwuwuEVSNwKDjZ3OUZzn-64" vertex="1" connectable="0">
          <mxGeometry width="30" height="90" as="geometry" />
        </mxCell>
        <mxCell id="OwuwuEVSNwKDjZ3OUZzn-66" value="Cart_Service" style="html=1;whiteSpace=wrap;fillColor=#60a917;fontColor=#ffffff;strokeColor=#2D7600;" parent="1" vertex="1">
          <mxGeometry x="590" y="890" width="100" height="40" as="geometry" />
        </mxCell>
        <mxCell id="B3Bbj-sqU37ugp7geOwl-1" value="Product_Service" style="shape=umlLifeline;perimeter=lifelinePerimeter;whiteSpace=wrap;html=1;container=1;dropTarget=0;collapsible=0;recursiveResize=0;outlineConnect=0;portConstraint=eastwest;newEdgeStyle={&quot;curved&quot;:0,&quot;rounded&quot;:0};fillColor=#60a917;strokeColor=#2D7600;fontColor=#ffffff;" vertex="1" parent="1">
          <mxGeometry x="760" y="145" width="100" height="115" as="geometry" />
        </mxCell>
        <mxCell id="B3Bbj-sqU37ugp7geOwl-2" value="" style="html=1;points=[[0,0,0,0,5],[0,1,0,0,-5],[1,0,0,0,5],[1,1,0,0,-5]];perimeter=orthogonalPerimeter;outlineConnect=0;targetShapes=umlLifeline;portConstraint=eastwest;newEdgeStyle={&quot;curved&quot;:0,&quot;rounded&quot;:0};fillColor=#6d8764;fontColor=#ffffff;strokeColor=#3A5431;" vertex="1" parent="1">
          <mxGeometry x="805" y="265" width="10" height="535" as="geometry" />
        </mxCell>
        <mxCell id="B3Bbj-sqU37ugp7geOwl-3" value="Product_Service" style="html=1;whiteSpace=wrap;fillColor=#60a917;fontColor=#ffffff;strokeColor=#2D7600;" vertex="1" parent="1">
          <mxGeometry x="760" y="890" width="100" height="40" as="geometry" />
        </mxCell>
        <mxCell id="B3Bbj-sqU37ugp7geOwl-4" value="" style="shape=partialRectangle;fillColor=none;align=left;verticalAlign=middle;strokeColor=none;spacingLeft=34;rotatable=0;points=[[0,0.5],[1,0.5]];portConstraint=eastwest;dropTarget=0;" vertex="1" parent="1">
          <mxGeometry x="780" y="800" width="90" height="90" as="geometry" />
        </mxCell>
        <mxCell id="B3Bbj-sqU37ugp7geOwl-5" value="" style="shape=partialRectangle;top=0;left=0;bottom=0;fillColor=none;stokeWidth=1;dashed=1;align=left;verticalAlign=middle;spacingLeft=4;spacingRight=4;overflow=hidden;rotatable=0;points=[];portConstraint=eastwest;part=1;" vertex="1" connectable="0" parent="B3Bbj-sqU37ugp7geOwl-4">
          <mxGeometry width="30" height="90" as="geometry" />
        </mxCell>
        <mxCell id="B3Bbj-sqU37ugp7geOwl-6" value="Inventory_Service" style="shape=umlLifeline;perimeter=lifelinePerimeter;whiteSpace=wrap;html=1;container=1;dropTarget=0;collapsible=0;recursiveResize=0;outlineConnect=0;portConstraint=eastwest;newEdgeStyle={&quot;curved&quot;:0,&quot;rounded&quot;:0};fillColor=#60a917;strokeColor=#2D7600;fontColor=#ffffff;" vertex="1" parent="1">
          <mxGeometry x="930" y="145" width="100" height="122.5" as="geometry" />
        </mxCell>
        <mxCell id="B3Bbj-sqU37ugp7geOwl-7" value="" style="html=1;points=[[0,0,0,0,5],[0,1,0,0,-5],[1,0,0,0,5],[1,1,0,0,-5]];perimeter=orthogonalPerimeter;outlineConnect=0;targetShapes=umlLifeline;portConstraint=eastwest;newEdgeStyle={&quot;curved&quot;:0,&quot;rounded&quot;:0};fillColor=#6d8764;fontColor=#ffffff;strokeColor=#3A5431;" vertex="1" parent="1">
          <mxGeometry x="975" y="265" width="10" height="535" as="geometry" />
        </mxCell>
        <mxCell id="B3Bbj-sqU37ugp7geOwl-8" value="Inventory_Service" style="html=1;whiteSpace=wrap;fillColor=#60a917;fontColor=#ffffff;strokeColor=#2D7600;" vertex="1" parent="1">
          <mxGeometry x="930" y="890" width="100" height="40" as="geometry" />
        </mxCell>
        <mxCell id="B3Bbj-sqU37ugp7geOwl-9" value="" style="shape=partialRectangle;fillColor=none;align=left;verticalAlign=middle;strokeColor=none;spacingLeft=34;rotatable=0;points=[[0,0.5],[1,0.5]];portConstraint=eastwest;dropTarget=0;" vertex="1" parent="1">
          <mxGeometry x="950" y="800" width="90" height="90" as="geometry" />
        </mxCell>
        <mxCell id="B3Bbj-sqU37ugp7geOwl-10" value="" style="shape=partialRectangle;top=0;left=0;bottom=0;fillColor=none;stokeWidth=1;dashed=1;align=left;verticalAlign=middle;spacingLeft=4;spacingRight=4;overflow=hidden;rotatable=0;points=[];portConstraint=eastwest;part=1;" vertex="1" connectable="0" parent="B3Bbj-sqU37ugp7geOwl-9">
          <mxGeometry width="30" height="90" as="geometry" />
        </mxCell>
        <mxCell id="B3Bbj-sqU37ugp7geOwl-11" value="Check product details" style="html=1;verticalAlign=bottom;endArrow=block;curved=0;rounded=0;" edge="1" parent="1" target="B3Bbj-sqU37ugp7geOwl-2">
          <mxGeometry width="80" relative="1" as="geometry">
            <mxPoint x="645" y="350" as="sourcePoint" />
            <mxPoint x="800" y="350" as="targetPoint" />
            <Array as="points" />
            <mxPoint as="offset" />
          </mxGeometry>
        </mxCell>
        <mxCell id="B3Bbj-sqU37ugp7geOwl-12" value="Check stock availability" style="html=1;verticalAlign=bottom;endArrow=block;curved=0;rounded=0;" edge="1" parent="1" target="B3Bbj-sqU37ugp7geOwl-7">
          <mxGeometry width="80" relative="1" as="geometry">
            <mxPoint x="650" y="400" as="sourcePoint" />
            <mxPoint x="970" y="400" as="targetPoint" />
            <Array as="points">
              <mxPoint x="835" y="400" />
            </Array>
            <mxPoint as="offset" />
          </mxGeometry>
        </mxCell>
        <mxCell id="B3Bbj-sqU37ugp7geOwl-13" value="Order_Service" style="shape=umlLifeline;perimeter=lifelinePerimeter;whiteSpace=wrap;html=1;container=1;dropTarget=0;collapsible=0;recursiveResize=0;outlineConnect=0;portConstraint=eastwest;newEdgeStyle={&quot;curved&quot;:0,&quot;rounded&quot;:0};fillColor=#60a917;strokeColor=#2D7600;fontColor=#ffffff;" vertex="1" parent="1">
          <mxGeometry x="1095" y="145" width="100" height="122.5" as="geometry" />
        </mxCell>
        <mxCell id="B3Bbj-sqU37ugp7geOwl-14" value="" style="html=1;points=[[0,0,0,0,5],[0,1,0,0,-5],[1,0,0,0,5],[1,1,0,0,-5]];perimeter=orthogonalPerimeter;outlineConnect=0;targetShapes=umlLifeline;portConstraint=eastwest;newEdgeStyle={&quot;curved&quot;:0,&quot;rounded&quot;:0};fillColor=#6d8764;fontColor=#ffffff;strokeColor=#3A5431;" vertex="1" parent="1">
          <mxGeometry x="1140" y="267.5" width="10" height="535" as="geometry" />
        </mxCell>
        <mxCell id="B3Bbj-sqU37ugp7geOwl-15" value="Order_Service" style="html=1;whiteSpace=wrap;fillColor=#60a917;fontColor=#ffffff;strokeColor=#2D7600;" vertex="1" parent="1">
          <mxGeometry x="1095" y="890" width="100" height="40" as="geometry" />
        </mxCell>
        <mxCell id="B3Bbj-sqU37ugp7geOwl-16" value="" style="shape=partialRectangle;fillColor=none;align=left;verticalAlign=middle;strokeColor=none;spacingLeft=34;rotatable=0;points=[[0,0.5],[1,0.5]];portConstraint=eastwest;dropTarget=0;" vertex="1" parent="1">
          <mxGeometry x="1115" y="800" width="90" height="90" as="geometry" />
        </mxCell>
        <mxCell id="B3Bbj-sqU37ugp7geOwl-17" value="" style="shape=partialRectangle;top=0;left=0;bottom=0;fillColor=none;stokeWidth=1;dashed=1;align=left;verticalAlign=middle;spacingLeft=4;spacingRight=4;overflow=hidden;rotatable=0;points=[];portConstraint=eastwest;part=1;" vertex="1" connectable="0" parent="B3Bbj-sqU37ugp7geOwl-16">
          <mxGeometry width="30" height="90" as="geometry" />
        </mxCell>
        <mxCell id="B3Bbj-sqU37ugp7geOwl-18" value="Create order" style="html=1;verticalAlign=bottom;endArrow=block;curved=0;rounded=0;" edge="1" parent="1" source="OwuwuEVSNwKDjZ3OUZzn-45" target="B3Bbj-sqU37ugp7geOwl-14">
          <mxGeometry width="80" relative="1" as="geometry">
            <mxPoint x="610" y="530" as="sourcePoint" />
            <mxPoint x="935" y="530" as="targetPoint" />
            <Array as="points">
              <mxPoint x="795" y="530" />
            </Array>
            <mxPoint as="offset" />
          </mxGeometry>
        </mxCell>
        <mxCell id="B3Bbj-sqU37ugp7geOwl-20" value="Get cart items" style="html=1;verticalAlign=bottom;endArrow=block;curved=0;rounded=0;" edge="1" parent="1" target="OwuwuEVSNwKDjZ3OUZzn-63">
          <mxGeometry x="0.3758" width="80" relative="1" as="geometry">
            <mxPoint x="850" y="600" as="sourcePoint" />
            <mxPoint x="1175" y="600" as="targetPoint" />
            <Array as="points">
              <mxPoint x="1000" y="600" />
              <mxPoint x="1140" y="600" />
            </Array>
            <mxPoint as="offset" />
          </mxGeometry>
        </mxCell>
        <mxCell id="B3Bbj-sqU37ugp7geOwl-21" value="Verify product availability" style="html=1;verticalAlign=bottom;endArrow=block;curved=0;rounded=0;" edge="1" parent="1" source="B3Bbj-sqU37ugp7geOwl-14" target="B3Bbj-sqU37ugp7geOwl-7">
          <mxGeometry width="80" relative="1" as="geometry">
            <mxPoint x="1130" y="650" as="sourcePoint" />
            <mxPoint x="1200" y="650" as="targetPoint" />
            <Array as="points">
              <mxPoint x="1070" y="650" />
            </Array>
            <mxPoint as="offset" />
          </mxGeometry>
        </mxCell>
        <mxCell id="B3Bbj-sqU37ugp7geOwl-23" value="Forward payment request" style="html=1;verticalAlign=bottom;endArrow=block;curved=0;rounded=0;" edge="1" parent="1" source="OwuwuEVSNwKDjZ3OUZzn-37" target="OwuwuEVSNwKDjZ3OUZzn-45">
          <mxGeometry width="80" relative="1" as="geometry">
            <mxPoint x="310" y="680" as="sourcePoint" />
            <mxPoint x="470" y="680" as="targetPoint" />
            <Array as="points">
              <mxPoint x="380" y="680" />
            </Array>
            <mxPoint as="offset" />
          </mxGeometry>
        </mxCell>
        <mxCell id="B3Bbj-sqU37ugp7geOwl-24" value="User_Service" style="shape=umlLifeline;perimeter=lifelinePerimeter;whiteSpace=wrap;html=1;container=1;dropTarget=0;collapsible=0;recursiveResize=0;outlineConnect=0;portConstraint=eastwest;newEdgeStyle={&quot;curved&quot;:0,&quot;rounded&quot;:0};fillColor=#60a917;strokeColor=#2D7600;fontColor=#ffffff;" vertex="1" parent="1">
          <mxGeometry x="1260" y="145" width="100" height="122.5" as="geometry" />
        </mxCell>
        <mxCell id="B3Bbj-sqU37ugp7geOwl-25" value="" style="html=1;points=[[0,0,0,0,5],[0,1,0,0,-5],[1,0,0,0,5],[1,1,0,0,-5]];perimeter=orthogonalPerimeter;outlineConnect=0;targetShapes=umlLifeline;portConstraint=eastwest;newEdgeStyle={&quot;curved&quot;:0,&quot;rounded&quot;:0};fillColor=#6d8764;fontColor=#ffffff;strokeColor=#3A5431;" vertex="1" parent="1">
          <mxGeometry x="1305" y="267.5" width="10" height="535" as="geometry" />
        </mxCell>
        <mxCell id="B3Bbj-sqU37ugp7geOwl-26" value="User_Service" style="html=1;whiteSpace=wrap;fillColor=#60a917;fontColor=#ffffff;strokeColor=#2D7600;" vertex="1" parent="1">
          <mxGeometry x="1260" y="890" width="100" height="40" as="geometry" />
        </mxCell>
        <mxCell id="B3Bbj-sqU37ugp7geOwl-28" value="" style="shape=partialRectangle;fillColor=none;align=left;verticalAlign=middle;strokeColor=none;spacingLeft=34;rotatable=0;points=[[0,0.5],[1,0.5]];portConstraint=eastwest;dropTarget=0;" vertex="1" parent="1">
          <mxGeometry x="1280" y="800" width="90" height="90" as="geometry" />
        </mxCell>
        <mxCell id="B3Bbj-sqU37ugp7geOwl-29" value="" style="shape=partialRectangle;top=0;left=0;bottom=0;fillColor=none;stokeWidth=1;dashed=1;align=left;verticalAlign=middle;spacingLeft=4;spacingRight=4;overflow=hidden;rotatable=0;points=[];portConstraint=eastwest;part=1;" vertex="1" connectable="0" parent="B3Bbj-sqU37ugp7geOwl-28">
          <mxGeometry width="30" height="90" as="geometry" />
        </mxCell>
        <mxCell id="B3Bbj-sqU37ugp7geOwl-30" value="Get user details" style="html=1;verticalAlign=bottom;endArrow=block;curved=0;rounded=0;entryX=0.2;entryY=0.549;entryDx=0;entryDy=0;entryPerimeter=0;" edge="1" parent="1" source="B3Bbj-sqU37ugp7geOwl-14" target="B3Bbj-sqU37ugp7geOwl-25">
          <mxGeometry width="80" relative="1" as="geometry">
            <mxPoint x="1200" y="560" as="sourcePoint" />
            <mxPoint x="1300" y="560" as="targetPoint" />
            <Array as="points" />
            <mxPoint as="offset" />
          </mxGeometry>
        </mxCell>
        <mxCell id="B3Bbj-sqU37ugp7geOwl-31" value="Shipping_Service" style="shape=umlLifeline;perimeter=lifelinePerimeter;whiteSpace=wrap;html=1;container=1;dropTarget=0;collapsible=0;recursiveResize=0;outlineConnect=0;portConstraint=eastwest;newEdgeStyle={&quot;curved&quot;:0,&quot;rounded&quot;:0};fillColor=#60a917;strokeColor=#2D7600;fontColor=#ffffff;" vertex="1" parent="1">
          <mxGeometry x="1430" y="145" width="100" height="122.5" as="geometry" />
        </mxCell>
        <mxCell id="B3Bbj-sqU37ugp7geOwl-32" value="" style="html=1;points=[[0,0,0,0,5],[0,1,0,0,-5],[1,0,0,0,5],[1,1,0,0,-5]];perimeter=orthogonalPerimeter;outlineConnect=0;targetShapes=umlLifeline;portConstraint=eastwest;newEdgeStyle={&quot;curved&quot;:0,&quot;rounded&quot;:0};fillColor=#6d8764;fontColor=#ffffff;strokeColor=#3A5431;" vertex="1" parent="1">
          <mxGeometry x="1475" y="267.5" width="10" height="535" as="geometry" />
        </mxCell>
        <mxCell id="B3Bbj-sqU37ugp7geOwl-33" value="Shipping_Service" style="html=1;whiteSpace=wrap;fillColor=#60a917;fontColor=#ffffff;strokeColor=#2D7600;" vertex="1" parent="1">
          <mxGeometry x="1430" y="890" width="100" height="40" as="geometry" />
        </mxCell>
        <mxCell id="B3Bbj-sqU37ugp7geOwl-34" value="" style="shape=partialRectangle;fillColor=none;align=left;verticalAlign=middle;strokeColor=none;spacingLeft=34;rotatable=0;points=[[0,0.5],[1,0.5]];portConstraint=eastwest;dropTarget=0;" vertex="1" parent="1">
          <mxGeometry x="1450" y="802.5" width="90" height="90" as="geometry" />
        </mxCell>
        <mxCell id="B3Bbj-sqU37ugp7geOwl-35" value="" style="shape=partialRectangle;top=0;left=0;bottom=0;fillColor=none;stokeWidth=1;dashed=1;align=left;verticalAlign=middle;spacingLeft=4;spacingRight=4;overflow=hidden;rotatable=0;points=[];portConstraint=eastwest;part=1;" vertex="1" connectable="0" parent="B3Bbj-sqU37ugp7geOwl-34">
          <mxGeometry width="30" height="90" as="geometry" />
        </mxCell>
        <mxCell id="B3Bbj-sqU37ugp7geOwl-36" value="Calculate shipping" style="html=1;verticalAlign=bottom;endArrow=block;curved=0;rounded=0;" edge="1" parent="1" source="B3Bbj-sqU37ugp7geOwl-14" target="B3Bbj-sqU37ugp7geOwl-32">
          <mxGeometry width="80" relative="1" as="geometry">
            <mxPoint x="1290" y="680" as="sourcePoint" />
            <mxPoint x="1490" y="680" as="targetPoint" />
            <Array as="points">
              <mxPoint x="1410" y="680" />
              <mxPoint x="1440" y="680" />
            </Array>
            <mxPoint as="offset" />
          </mxGeometry>
        </mxCell>
        <mxCell id="B3Bbj-sqU37ugp7geOwl-37" value="Payment_Service" style="shape=umlLifeline;perimeter=lifelinePerimeter;whiteSpace=wrap;html=1;container=1;dropTarget=0;collapsible=0;recursiveResize=0;outlineConnect=0;portConstraint=eastwest;newEdgeStyle={&quot;curved&quot;:0,&quot;rounded&quot;:0};fillColor=#60a917;strokeColor=#2D7600;fontColor=#ffffff;" vertex="1" parent="1">
          <mxGeometry x="1600" y="145" width="100" height="122.5" as="geometry" />
        </mxCell>
        <mxCell id="B3Bbj-sqU37ugp7geOwl-38" value="" style="html=1;points=[[0,0,0,0,5],[0,1,0,0,-5],[1,0,0,0,5],[1,1,0,0,-5]];perimeter=orthogonalPerimeter;outlineConnect=0;targetShapes=umlLifeline;portConstraint=eastwest;newEdgeStyle={&quot;curved&quot;:0,&quot;rounded&quot;:0};fillColor=#6d8764;fontColor=#ffffff;strokeColor=#3A5431;" vertex="1" parent="1">
          <mxGeometry x="1645" y="267.5" width="10" height="535" as="geometry" />
        </mxCell>
        <mxCell id="B3Bbj-sqU37ugp7geOwl-39" value="Payment_Service" style="html=1;whiteSpace=wrap;fillColor=#60a917;fontColor=#ffffff;strokeColor=#2D7600;" vertex="1" parent="1">
          <mxGeometry x="1600" y="890" width="100" height="40" as="geometry" />
        </mxCell>
        <mxCell id="B3Bbj-sqU37ugp7geOwl-40" value="" style="shape=partialRectangle;fillColor=none;align=left;verticalAlign=middle;strokeColor=none;spacingLeft=34;rotatable=0;points=[[0,0.5],[1,0.5]];portConstraint=eastwest;dropTarget=0;" vertex="1" parent="1">
          <mxGeometry x="1620" y="802.5" width="90" height="90" as="geometry" />
        </mxCell>
        <mxCell id="B3Bbj-sqU37ugp7geOwl-41" value="" style="shape=partialRectangle;top=0;left=0;bottom=0;fillColor=none;stokeWidth=1;dashed=1;align=left;verticalAlign=middle;spacingLeft=4;spacingRight=4;overflow=hidden;rotatable=0;points=[];portConstraint=eastwest;part=1;" vertex="1" connectable="0" parent="B3Bbj-sqU37ugp7geOwl-40">
          <mxGeometry width="30" height="90" as="geometry" />
        </mxCell>
        <mxCell id="B3Bbj-sqU37ugp7geOwl-42" value="Process payment" style="html=1;verticalAlign=bottom;endArrow=block;curved=0;rounded=0;" edge="1" parent="1" source="OwuwuEVSNwKDjZ3OUZzn-45" target="B3Bbj-sqU37ugp7geOwl-38">
          <mxGeometry width="80" relative="1" as="geometry">
            <mxPoint x="900" y="750" as="sourcePoint" />
            <mxPoint x="1640" y="750" as="targetPoint" />
            <Array as="points">
              <mxPoint x="1210" y="750" />
            </Array>
            <mxPoint as="offset" />
          </mxGeometry>
        </mxCell>
        <mxCell id="B3Bbj-sqU37ugp7geOwl-45" value="Update order status" style="html=1;verticalAlign=bottom;endArrow=block;curved=0;rounded=0;" edge="1" parent="1">
          <mxGeometry x="0.3758" width="80" relative="1" as="geometry">
            <mxPoint x="1340" y="790" as="sourcePoint" />
            <mxPoint x="1150" y="790" as="targetPoint" />
            <Array as="points">
              <mxPoint x="1640" y="790" />
            </Array>
            <mxPoint as="offset" />
          </mxGeometry>
        </mxCell>
        <mxCell id="B3Bbj-sqU37ugp7geOwl-46" value="Payment_Gateway" style="shape=umlLifeline;perimeter=lifelinePerimeter;whiteSpace=wrap;html=1;container=1;dropTarget=0;collapsible=0;recursiveResize=0;outlineConnect=0;portConstraint=eastwest;newEdgeStyle={&quot;curved&quot;:0,&quot;rounded&quot;:0};fillColor=#60a917;strokeColor=#2D7600;fontColor=#ffffff;" vertex="1" parent="1">
          <mxGeometry x="1750" y="145" width="110" height="125" as="geometry" />
        </mxCell>
        <mxCell id="B3Bbj-sqU37ugp7geOwl-47" value="" style="html=1;points=[[0,0,0,0,5],[0,1,0,0,-5],[1,0,0,0,5],[1,1,0,0,-5]];perimeter=orthogonalPerimeter;outlineConnect=0;targetShapes=umlLifeline;portConstraint=eastwest;newEdgeStyle={&quot;curved&quot;:0,&quot;rounded&quot;:0};fillColor=#6d8764;fontColor=#ffffff;strokeColor=#3A5431;" vertex="1" parent="1">
          <mxGeometry x="1800" y="267.5" width="10" height="535" as="geometry" />
        </mxCell>
        <mxCell id="B3Bbj-sqU37ugp7geOwl-48" value="Payment_Gateway" style="html=1;whiteSpace=wrap;fillColor=#60a917;fontColor=#ffffff;strokeColor=#2D7600;" vertex="1" parent="1">
          <mxGeometry x="1755" y="890" width="115" height="40" as="geometry" />
        </mxCell>
        <mxCell id="B3Bbj-sqU37ugp7geOwl-49" value="" style="shape=partialRectangle;fillColor=none;align=left;verticalAlign=middle;strokeColor=none;spacingLeft=34;rotatable=0;points=[[0,0.5],[1,0.5]];portConstraint=eastwest;dropTarget=0;" vertex="1" parent="1">
          <mxGeometry x="1775" y="802.5" width="90" height="90" as="geometry" />
        </mxCell>
        <mxCell id="B3Bbj-sqU37ugp7geOwl-50" value="" style="shape=partialRectangle;top=0;left=0;bottom=0;fillColor=none;stokeWidth=1;dashed=1;align=left;verticalAlign=middle;spacingLeft=4;spacingRight=4;overflow=hidden;rotatable=0;points=[];portConstraint=eastwest;part=1;" vertex="1" connectable="0" parent="B3Bbj-sqU37ugp7geOwl-49">
          <mxGeometry width="30" height="90" as="geometry" />
        </mxCell>
        <mxCell id="B3Bbj-sqU37ugp7geOwl-51" value="Complete transaction" style="html=1;verticalAlign=bottom;endArrow=block;curved=0;rounded=0;" edge="1" parent="1" source="B3Bbj-sqU37ugp7geOwl-38">
          <mxGeometry x="0.0061" width="80" relative="1" as="geometry">
            <mxPoint x="1710" y="770" as="sourcePoint" />
            <mxPoint x="1800" y="770" as="targetPoint" />
            <Array as="points" />
            <mxPoint as="offset" />
          </mxGeometry>
        </mxCell>
      </root>
    </mxGraphModel>
  </diagram>
</mxfile>
